#!OML:ASF H:\ManfredETheater\Project 1\Capture day 1\Session 1\subject.ASF
:FULLY-SPECIFIED
:DEGREES
170
root -2.2559 16.0234 -22.201 -173.208 -28.1226 -178.801
lowerback 18.6209 -1.49491 -2.41029
upperback -0.923849 -2.61044 -0.176057
thorax -11.4143 -1.11351 1.91354
lowerneck -16.5336 -1.91457 -2.3356
upperneck 7.32277 -2.6004 4.25029
head 4.96333 -1.07134 1.47445
rclavicle 7.27552e-014 2.0276e-014
rhumerus -27.7424 9.45982 -78.6507
rradius 81.626
rwrist -0.535077
rhand -27.8766 3.9573
rfingers 7.12502
rthumb -1.26676 -26.0187
lclavicle 7.27552e-014 2.0276e-014
lhumerus -1.29723 -24.0722 85.7274
lradius 86.6569
lwrist 10.0712
lhand -24.8803 -14.8832
lfingers 7.12502
lthumb 1.62721 15.0903
rfemur -44.9176 -13.5114 19.7008
rtibia 93.241
rfoot -15.239 -12.4539
rtoes -31.8251
lfemur -29.8163 -0.109931 -18.1078
ltibia 76.8629
lfoot -25.7089 -15.8185
ltoes -8.70144
171
root -2.36528 16.0535 -22.4435 -172.507 -28.7318 -179.045
lowerback 18.7243 -1.69883 -2.73723
upperback -0.826549 -2.97403 -0.28763
thorax -11.3372 -1.27368 2.07872
lowerneck -17.0477 -1.97582 -2.5152
upperneck 7.03802 -2.68302 4.60038
head 4.96706 -1.09657 1.60292
rclavicle 7.89175e-014 4.53229e-014
rhumerus -28.6123 8.13438 -77.2034
rradius 79.0089
rwrist -1.59205
rhand -27.7048 3.32578
rfingers 7.12502
rthumb -1.10083 -26.6511
lclavicle 7.89175e-014 4.53229e-014
lhumerus 1.85815 -23.4038 84.5888
lradius 87.756
lwrist 10.4847
lhand -24.8763 -14.8465
lfingers 7.12502
lthumb 1.63107 15.127
rfemur -47.1932 -14.086 20.3978
rtibia 93.6473
rfoot -15.5228 -12.2516
rtoes -31.8921
lfemur -29.0292 -0.658058 -18.2115
ltibia 75.8808
lfoot -25.6461 -15.9547
ltoes -9.45618
172
root -2.47637 16.0801 -22.6883 -171.751 -29.2788 -179.293
lowerback 18.7938 -1.88029 -3.05796
upperback -0.724176 -3.30299 -0.378855
thorax -11.233 -1.41872 2.25125
lowerneck -17.5797 -2.03602 -2.73552
upperneck 6.70794 -2.75442 4.95231
head 4.95956 -1.11862 1.73951
rclavicle -4.7112e-014 8.74653e-015
rhumerus -29.6811 6.99692 -75.7205
rradius 76.529
rwrist -2.60123
rhand -27.686 2.93335
rfingers 7.12502
rthumb -1.08265 -27.0437
lclavicle -4.7112e-014 8.74653e-015
lhumerus 4.90508 -22.4673 83.6796
lradius 88.9865
lwrist 10.7294
lhand -24.9512 -14.7643
lfingers 7.12502
lthumb 1.55867 15.2098
rfemur -49.6329 -14.5324 21.1436
rtibia 93.8749
rfoot -15.8154 -11.886
rtoes -32.0595
lfemur -28.2429 -1.21917 -18.3127
ltibia 74.8274
lfoot -25.6541 -16.044
ltoes -10.3141
173
root -2.58924 16.1039 -22.9366 -170.948 -29.7475 -179.533
lowerback 18.8295 -2.02786 -3.37582
upperback -0.627551 -3.58084 -0.438578
thorax -11.1145 -1.53968 2.44061
lowerneck -18.089 -2.0987 -2.98736
upperneck 6.31611 -2.81796 5.28334
head 4.92872 -1.14115 1.87546
rclavicle -2.96189e-014 1.43125e-014
rhumerus -30.9883 6.09833 -74.1936
rradius 74.2966
rwrist -3.37944
rhand -27.7566 2.7374
rfingers 7.12502
rthumb -1.15081 -27.2392
lclavicle -2.96189e-014 1.43125e-014
lhumerus 7.79951 -21.3201 83.0377
lradius 90.4038
lwrist 10.821
lhand -25.1331 -14.5927
lfingers 7.12502
lthumb 1.38304 15.3826
rfemur -52.2062 -14.8126 21.9312
rtibia 93.8978
rfoot -16.1284 -11.3904
rtoes -32.327
lfemur -27.4286 -1.766 -18.3955
ltibia 73.6896
lfoot -25.7307 -16.1412
ltoes -10.988
174
root -2.70399 16.1251 -23.1895 -170.116 -30.1322 -179.75
lowerback 18.8393 -2.13692 -3.6884
upperback -0.544378 -3.79936 -0.455457
thorax -10.9948 -1.63174 2.65609
lowerneck -18.5385 -2.16074 -3.23955
upperneck 5.85404 -2.87231 5.55678
head 4.8648 -1.16579 1.99445
rclavicle 1.55052e-014 -2.14687e-014
rhumerus -32.585 5.48495 -72.6307
rradius 72.4421
rwrist -3.79903
rhand -27.8072 2.70834
rfingers 7.12502
rthumb -1.19966 -27.268
lclavicle 1.55052e-014 -2.14687e-014
lhumerus 10.5033 -20.012 82.6773
lradius 92.0503
lwrist 10.8586
lhand -25.4104 -14.337
lfingers 7.12502
lthumb 1.11516 15.6398
rfemur -54.86 -14.9106 22.7525
rtibia 93.691
rfoot -16.4425 -10.8167
rtoes -32.7233
lfemur -26.5558 -2.25411 -18.4514
ltibia 72.4445
lfoot -25.8672 -16.2422
ltoes -11.3848
175
root -2.82109 16.1449 -23.4479 -169.274 -30.4345 -179.929
lowerback 18.8398 -2.20718 -3.97818
upperback -0.483821 -3.95374 -0.421052
thorax -10.8952 -1.69212 2.8971
lowerneck -18.9322 -2.21767 -3.5001
upperneck 5.35485 -2.90943 5.76501
head 4.77836 -1.18842 2.09611
rclavicle -5.08889e-014 -2.62396e-014
rhumerus -34.5183 5.2106 -71.0558
rradius 71.0796
rwrist -3.87925
rhand -27.7841 2.81893
rfingers 7.12502
rthumb -1.17743 -27.1576
lclavicle -5.08889e-014 -2.62396e-014
lhumerus 12.9873 -18.6037 82.5788
lradius 93.9811
lwrist 11.0092
lhand -25.7645 -13.9671
lfingers 7.12502
lthumb 0.773206 16.0113
rfemur -57.5368 -14.8211 23.5921
rtibia 93.2306
rfoot -16.7454 -10.2057
rtoes -33.1981
lfemur -25.5933 -2.64715 -18.4706
ltibia 71.0656
lfoot -26.0746 -16.3252
ltoes -11.5752
176
root -2.94108 16.1641 -23.7119 -168.444 -30.6472 -180.042
lowerback 18.8447 -2.24072 -4.21574
upperback -0.457778 -4.04034 -0.331122
thorax -10.8395 -1.71899 3.15231
lowerneck -19.2499 -2.26176 -3.73856
upperneck 4.83385 -2.92317 5.87237
head 4.66957 -1.20713 2.16501
rclavicle -2.76311e-014 3.26007e-014
rhumerus -36.8141 5.32178 -69.5153
rradius 70.2855
rwrist -3.72131
rhand -27.6664 3.04967
rfingers 7.12502
rthumb -1.06376 -26.9274
lclavicle -2.76311e-014 3.26007e-014
lhumerus 15.2254 -17.1594 82.6858
lradius 96.2287
lwrist 11.388
lhand -26.2144 -13.4968
lfingers 7.12502
lthumb 0.338629 16.4826
rfemur -60.1867 -14.5372 24.443
rtibia 92.5006
rfoot -17.0202 -9.59123
rtoes -33.6601
lfemur -24.525 -2.91145 -18.4355
ltibia 69.5304
lfoot -26.343 -16.3935
ltoes -11.6244
177
root -3.065 16.1834 -23.9827 -167.633 -30.771 -180.102
lowerback 18.8563 -2.2447 -4.40247
upperback -0.470183 -4.07021 -0.19238
thorax -10.8343 -1.717 3.41894
lowerneck -19.4921 -2.27515 -3.93152
upperneck 4.3278 -2.8948 5.85979
head 4.54844 -1.21205 2.19325
rclavicle 1.18674e-013 1.59028e-014
rhumerus -39.4686 5.85129 -68.0793
rradius 70.0847
rwrist -3.49204
rhand -27.489 3.37594
rfingers 7.12502
rthumb -0.892382 -26.6019
lclavicle 1.18674e-013 1.59028e-014
lhumerus 17.2042 -15.7113 82.9098
lradius 98.8137
lwrist 12.1232
lhand -26.6427 -12.9246
lfingers 7.12502
lthumb -0.0749621 17.0552
rfemur -62.747 -14.0842 25.2618
rtibia 91.4929
rfoot -17.2547 -8.99628
rtoes -34.0534
lfemur -23.3261 -3.04288 -18.3651
ltibia 67.8183
lfoot -26.6336 -16.4446
ltoes -11.5418
178
root -3.19458 16.2038 -24.26 -166.84 -30.8278 -180.14
lowerback 18.8835 -2.23898 -4.52829
upperback -0.524134 -4.06999 -0.0197673
thorax -10.8884 -1.69908 3.68309
lowerneck -19.6581 -2.24747 -4.07095
upperneck 3.87043 -2.81342 5.72456
head 4.42491 -1.19638 2.17977
rclavicle 2.74323e-014 2.3059e-014
rhumerus -42.4471 6.80722 -66.8292
rradius 70.45
rwrist -3.38231
rhand -27.3233 3.77531
rfingers 7.12502
rthumb -0.73238 -26.2032
lclavicle 2.74323e-014 2.3059e-014
lhumerus 18.8918 -14.2844 83.1609
lradius 101.724
lwrist 13.2447
lhand -27.0648 -12.3652
lfingers 7.12502
lthumb -0.482703 17.614
rfemur -65.1664 -13.5272 25.9947
rtibia 90.2103
rfoot -17.4636 -8.40966
rtoes -34.3643
lfemur -21.9864 -3.07581 -18.2972
ltibia 65.9155
lfoot -26.8789 -16.4897
ltoes -11.3227
179
root -3.33063 16.225 -24.544 -166.05 -30.8177 -180.189
lowerback 18.9117 -2.2371 -4.61032
upperback -0.62041 -4.06259 0.171428
thorax -10.9932 -1.67584 3.94322
lowerneck -19.7539 -2.16483 -4.14741
upperneck 3.49685 -2.66401 5.4726
head 4.31056 -1.15071 2.12629
rclavicle 9.74045e-014 -4.6118e-014
rhumerus -45.6901 8.15505 -65.8519
rradius 71.3108
rwrist -3.54172
rhand -27.1943 4.18724
rfingers 7.12502
rthumb -0.607739 -25.7916
lclavicle 9.74045e-014 -4.6118e-014
lhumerus 20.2936 -12.8871 83.3194
lradius 104.908
lwrist 14.677
lhand -27.4648 -11.8603
lfingers 7.12502
lthumb -0.869023 18.1177
rfemur -67.415 -12.9051 26.6012
rtibia 88.6654
rfoot -17.6365 -7.85662
rtoes -34.7154
lfemur -20.5183 -3.03969 -18.2705
ltibia 63.8201
lfoot -27.0106 -16.524
ltoes -11.0717
180
root -3.4736 16.2478 -24.8358 -165.265 -30.7601 -180.268
lowerback 18.9346 -2.25895 -4.65517
upperback -0.754178 -4.07703 0.369708
thorax -11.1373 -1.66153 4.19778
lowerneck -19.7726 -2.01806 -4.14314
upperneck 3.21715 -2.43842 5.09992
head 4.2077 -1.07042 2.02937
rclavicle -3.63776e-014 -1.43125e-014
rhumerus -49.1265 9.82131 -65.2203
rradius 72.5668
rwrist -4.04134
rhand -27.1192 4.56277
rfingers 7.12502
rthumb -0.535203 -25.4163
lclavicle -3.63776e-014 -1.43125e-014
lhumerus 21.3954 -11.5062 83.3071
lradius 108.294
lwrist 16.2634
lhand -27.7907 -11.5021
lfingers 7.12502
lthumb -1.18374 18.4744
rfemur -69.4583 -12.264 27.0597
rtibia 86.9102
rfoot -17.8291 -7.32053
rtoes -34.9476
lfemur -18.9491 -2.98658 -18.3014
ltibia 61.6013
lfoot -27.0071 -16.559
ltoes -10.8846
181
root -3.62423 16.2734 -25.1358 -164.474 -30.6773 -180.42
lowerback 18.9319 -2.3203 -4.68461
upperback -0.908641 -4.13945 0.564501
thorax -11.2868 -1.66962 4.45258
lowerneck -19.7346 -1.81163 -4.08738
upperneck 3.04803 -2.13818 4.64279
head 4.1269 -0.953933 1.90467
rclavicle 7.33515e-014 -5.4467e-014
rhumerus -52.6624 11.693 -64.9574
rradius 74.0783
rwrist -4.87231
rhand -27.061 4.91837
rfingers 7.12502
rthumb -0.47902 -25.0608
lclavicle 7.33515e-014 -5.4467e-014
lhumerus 22.2037 -10.147 83.0459
lradius 111.793
lwrist 17.8268
lhand -27.9964 -11.3271
lfingers 7.12502
lthumb -1.38243 18.6481
rfemur -71.2756 -11.6626 27.3367
rtibia 84.9386
rfoot -18.011 -6.78677
rtoes -35.1584
lfemur -17.2719 -2.98509 -18.4283
ltibia 59.2129
lfoot -26.743 -16.5998
ltoes -10.7799
